<svg width="697" height="400" viewBox="0 0 697 400" fill="none" xmlns="http://www.w3.org/2000/svg">
<g opacity="0.2" clip-path="url(#clip0_51_15)">
<path d="M13.1703 76.0776C13.7829 75.465 14.7571 75.446 15.3463 76.0351L17.4982 78.187C18.4637 77.1847 19.5666 76.0818 20.8075 74.8409L26.7235 68.9249C27.9643 67.6841 29.0673 66.5812 30.0695 65.6156L27.9177 63.4638C27.3285 62.8746 27.3475 61.9004 27.9602 61.2877C28.5727 60.6752 29.5471 60.6561 30.1362 61.2452L32.3825 63.4914C34.6751 61.5267 36.475 60.5315 38.489 60.4922C40.5032 60.4528 42.2655 61.3784 44.4832 63.2552L45.6673 64.2045L17.5666 92.3053L16.2046 93.6673L15.1378 92.6006C13.261 90.3829 12.3354 88.6206 12.3747 86.6065C12.4141 84.5924 13.4092 82.7925 15.3741 80.4999L13.1278 78.2536C12.5387 77.6645 12.5577 76.6902 13.1703 76.0776Z" fill="#FAFAFA"/>
<path opacity="0.5" d="M53.0325 71.5711L50.0862 68.6248C48.8501 67.3887 46.642 65.19 45.6429 64.229L16.2181 93.6538C17.1791 94.6528 19.3874 96.8514 20.6235 98.0876L23.5698 101.034C29.1253 106.589 31.903 109.367 35.3548 109.367C38.8066 109.367 41.5844 106.589 47.14 101.034L53.0325 95.1413C58.5881 89.5857 61.3659 86.8079 61.3659 83.3561C61.3657 79.9044 58.588 77.1266 53.0325 71.5711Z" fill="#FAFAFA"/>
<path d="M51.5599 81.8822C52.3735 82.6958 52.3735 84.0149 51.5599 84.8285C50.7463 85.6421 49.4273 85.6421 48.6136 84.8285C47.8 84.0149 47.8 82.6958 48.6136 81.8822C49.4273 81.0686 50.7463 81.0686 51.5599 81.8822Z" fill="#FAFAFA"/>
<path d="M45.6673 75.9896C46.481 76.8033 46.481 78.1223 45.6673 78.9359C44.8537 79.7495 43.5347 79.7495 42.7211 78.9359C41.9074 78.1223 41.9074 76.8033 42.7211 75.9896C43.5347 75.176 44.8537 75.176 45.6673 75.9896Z" fill="#FAFAFA"/>
<path d="M44.1942 89.2479C45.0078 90.0615 45.0078 91.3805 44.1942 92.1942C43.3806 93.0078 42.0615 93.0078 41.2479 92.1942C40.4343 91.3805 40.4343 90.0615 41.2479 89.2479C42.0615 88.4343 43.3806 88.4343 44.1942 89.2479Z" fill="#FAFAFA"/>
<path d="M38.3016 83.3553C39.1152 84.1689 39.1152 85.488 38.3016 86.3016C37.488 87.1152 36.169 87.1152 35.3553 86.3016C34.5417 85.488 34.5417 84.1689 35.3553 83.3553C36.169 82.5417 37.488 82.5417 38.3016 83.3553Z" fill="#FAFAFA"/>
<path d="M36.8285 96.6136C37.6421 97.4272 37.6421 98.7463 36.8285 99.5599C36.0149 100.373 34.6958 100.373 33.8822 99.5599C33.0686 98.7462 33.0686 97.4272 33.8822 96.6136C34.6958 95.8 36.0149 95.8 36.8285 96.6136Z" fill="#FAFAFA"/>
<path d="M30.9359 90.721C31.7495 91.5346 31.7495 92.8537 30.9359 93.6673C30.1223 94.4809 28.8032 94.4809 27.9896 93.6673C27.176 92.8537 27.176 91.5346 27.9896 90.721C28.8032 89.9074 30.1223 89.9074 30.9359 90.721Z" fill="#FAFAFA"/>
</g>
<g opacity="0.2" clip-path="url(#clip1_51_15)">
<path fill-rule="evenodd" clip-rule="evenodd" d="M641.99 64.1508C642.6 64.761 642.6 65.7503 641.99 66.3605L640.516 67.8337C634.618 73.7322 634.618 83.2956 640.516 89.1942C646.415 95.0928 655.978 95.0928 661.877 89.1942L663.35 87.721C663.96 87.1108 664.95 87.1109 665.56 87.721C666.17 88.3312 666.17 89.3206 665.56 89.9307L664.087 91.4039C657.34 98.1506 646.62 98.5034 639.458 92.462L636.097 95.8233C635.487 96.4335 634.498 96.4335 633.887 95.8233C633.277 95.2131 633.277 94.2238 633.887 93.6136L637.249 90.2523C631.207 83.0902 631.56 72.3706 638.307 65.6239L639.78 64.1508C640.39 63.5406 641.379 63.5406 641.99 64.1508Z" fill="#FAFAFA"/>
<path opacity="0.5" d="M652.302 70.7799C652.912 70.1697 652.912 69.1804 652.302 68.5702L650.557 66.826L648.322 64.5905C653.019 60.9758 659.783 61.3202 664.087 65.6239C668.39 69.9276 668.735 76.6912 665.12 81.3887L662.885 79.1533L658.931 75.1993C658.321 74.5892 657.331 74.5892 656.721 75.1993C656.111 75.8095 656.111 76.7989 656.721 77.4091L660.772 81.4602L662.982 83.6699L660.772 85.8796L658.562 83.6699L654.511 79.6188C653.901 79.0086 652.912 79.0086 652.302 79.6188C651.691 80.2289 651.691 81.2183 652.302 81.8285L656.256 85.7824L658.491 88.0179C653.793 91.6327 647.03 91.2881 642.726 86.9845C638.423 82.6808 638.078 75.9172 641.693 71.2196L643.928 73.4551L645.673 75.1994C646.283 75.8095 647.272 75.8095 647.882 75.1994C648.492 74.5892 648.492 73.5998 647.882 72.9896L646.041 71.1482L643.831 68.9385L646.041 66.7288L648.251 68.9385L650.092 70.7799C650.702 71.3901 651.691 71.3901 652.302 70.7799Z" fill="#FAFAFA"/>
<path d="M652.302 79.6188C651.691 80.2289 651.691 81.2183 652.302 81.8285L656.256 85.7824L658.491 88.0179L660.772 85.8796L658.562 83.6699L654.511 79.6188C653.901 79.0086 652.912 79.0086 652.302 79.6188Z" fill="#FAFAFA"/>
<path d="M656.721 75.1994C656.111 75.8095 656.111 76.7989 656.721 77.4091L660.772 81.4602L662.982 83.6699L665.12 81.3887L662.885 79.1533L658.931 75.1994C658.321 74.5892 657.331 74.5892 656.721 75.1994Z" fill="#FAFAFA"/>
<path d="M652.302 70.7799C652.912 70.1697 652.912 69.1804 652.302 68.5702L650.557 66.826L648.322 64.5905L646.041 66.7288L648.25 68.9385L650.092 70.7799C650.702 71.3901 651.691 71.3901 652.302 70.7799Z" fill="#FAFAFA"/>
<path d="M647.882 75.1993C648.492 74.5892 648.492 73.5998 647.882 72.9896L646.041 71.1482L643.831 68.9385L641.693 71.2196L643.928 73.4551L645.672 75.1993C646.283 75.8095 647.272 75.8095 647.882 75.1993Z" fill="#FAFAFA"/>
</g>
<g opacity="0.1" clip-path="url(#clip2_51_15)">
<path opacity="0.5" d="M42.069 285.538C45.831 275.202 47.712 270.034 52.0917 267.992C56.4715 265.949 61.6395 267.83 71.9756 271.592C82.3116 275.354 87.4799 277.235 89.522 281.615C91.5643 285.995 89.6833 291.163 85.9213 301.499L81.931 312.462C78.1691 322.798 76.288 327.966 71.9082 330.008C67.5287 332.051 62.3604 330.17 52.0244 326.408C41.6883 322.646 36.5203 320.765 34.478 316.385C32.4356 312.005 34.3167 306.837 38.0787 296.501L42.069 285.538Z" fill="white"/>
<path fill-rule="evenodd" clip-rule="evenodd" d="M69.2323 279.129C65.0696 277.614 60.467 279.761 58.9519 283.923C57.4368 288.086 59.5831 292.689 63.7457 294.204C67.9084 295.719 72.5111 293.572 74.0261 289.41C75.5412 285.247 73.395 280.645 69.2323 279.129Z" fill="white"/>
<path fill-rule="evenodd" clip-rule="evenodd" d="M48.2307 304.852C50.2968 299.175 56.5731 296.249 62.2494 298.315C67.9258 300.381 70.8525 306.657 68.7865 312.334C66.7204 318.01 60.4442 320.937 54.7678 318.871C49.0914 316.805 46.1647 310.528 48.2307 304.852Z" fill="white"/>
</g>
<g opacity="0.1" clip-path="url(#clip3_51_15)">
<path opacity="0.5" d="M627.939 302.359C624.177 292.023 622.296 286.855 624.338 282.475C626.38 278.095 631.548 276.214 641.884 272.452C652.22 268.69 657.389 266.809 661.768 268.852C666.148 270.894 668.029 276.062 671.791 286.398L675.781 297.361C679.543 307.697 681.424 312.865 679.382 317.245C677.34 321.625 672.172 323.506 661.836 327.268C651.499 331.03 646.331 332.911 641.952 330.868C637.572 328.826 635.691 323.658 631.929 313.322L627.939 302.359Z" fill="white"/>
<path fill-rule="evenodd" clip-rule="evenodd" d="M644.628 279.989C640.465 281.504 638.319 286.107 639.834 290.27C641.349 294.432 645.952 296.579 650.114 295.064C654.277 293.548 656.423 288.946 654.908 284.783C653.393 280.621 648.79 278.474 644.628 279.989Z" fill="white"/>
<path fill-rule="evenodd" clip-rule="evenodd" d="M645.074 313.193C643.008 307.517 645.934 301.241 651.611 299.175C657.287 297.109 663.563 300.035 665.629 305.712C667.695 311.388 664.769 317.664 659.092 319.731C653.416 321.797 647.14 318.87 645.074 313.193Z" fill="white"/>
</g>
<g opacity="0.05">
<path d="M334.5 208.467L476.167 151.8V246.015C467.748 240.625 457.738 237.5 447 237.5C417.085 237.5 392.833 261.752 392.833 291.667C392.833 321.582 417.085 345.833 447 345.833C476.915 345.833 501.167 321.582 501.167 291.667V132.438C501.167 113.39 501.167 97.416 499.827 84.6885C499.637 82.8898 499.413 81.1015 499.167 79.4328C497.875 70.7377 495.593 62.6262 491.19 55.8525C488.988 52.4657 486.255 49.4135 482.852 46.7898C482.213 46.298 481.55 45.8212 480.865 45.36L480.727 45.268C468.94 37.4233 455.688 37.9843 442.038 41.4628C428.837 44.8268 412.47 51.6775 392.4 60.0782L357.5 74.6858C348.092 78.6228 340.122 81.9585 333.867 85.4133C327.21 89.0892 321.477 93.4247 317.177 99.8852C312.878 106.346 311.092 113.308 310.272 120.867C309.5 127.972 309.5 136.612 309.5 146.81V279.348C301.08 273.958 291.072 270.833 280.333 270.833C250.418 270.833 226.167 295.085 226.167 325C226.167 354.915 250.418 379.167 280.333 379.167C310.248 379.167 334.5 354.915 334.5 325V208.467Z" fill="white"/>
<path opacity="0.5" d="M251.167 33.3333C251.167 26.4298 245.57 20.8333 238.667 20.8333C231.763 20.8333 226.167 26.4298 226.167 33.3333V129.348C217.748 123.958 207.739 120.833 197 120.833C167.085 120.833 142.833 145.084 142.833 175C142.833 204.915 167.085 229.167 197 229.167C226.916 229.167 251.167 204.915 251.167 175V83.4083C262.809 91.8188 276.659 95.8333 288.667 95.8333C295.57 95.8333 301.167 90.2368 301.167 83.3333C301.167 76.4298 295.57 70.8333 288.667 70.8333C281.094 70.8333 271.438 67.8982 263.86 61.6395C256.64 55.6768 251.167 46.6308 251.167 33.3333Z" fill="white"/>
</g>
<defs>
<clipPath id="clip0_51_15">
<rect width="50" height="50" fill="white" transform="translate(0 83.3553) rotate(-45)"/>
</clipPath>
<clipPath id="clip1_51_15">
<rect width="50" height="50" fill="white" transform="translate(649.355 45) rotate(45)"/>
</clipPath>
<clipPath id="clip2_51_15">
<rect width="70" height="70" fill="white" transform="translate(41.0814 254.14) rotate(20)"/>
</clipPath>
<clipPath id="clip3_51_15">
<rect width="70" height="70" fill="white" transform="translate(607 278.941) rotate(-20)"/>
</clipPath>
</defs>
</svg>
